<?xml version="1.0" standalone="no"?><!DOCTYPE svg PUBLIC "-//W3C//DTD SVG 1.1//EN" "http://www.w3.org/Graphics/SVG/1.1/DTD/svg11.dtd"><svg t="1698224809581" class="icon" viewBox="0 0 1024 1024" version="1.1" xmlns="http://www.w3.org/2000/svg" p-id="19197" xmlns:xlink="http://www.w3.org/1999/xlink" width="200" height="200"><path d="M771.023 642l0.3 0.007c1.491 0.067 2.83 0.642 4.019 1.724 1.266 1.154 2.13 2.654 2.59 4.5l5.183 37.73 0.927 0.363c8.62 3.427 16.488 8.037 23.605 13.83l35.587-14.192 0.343-0.124c1.708-0.58 3.263-0.655 4.667-0.223 1.497 0.462 2.706 1.5 3.628 3.116l29.022 49.846 0.166 0.304c0.797 1.528 1.087 3.157 0.87 4.888-0.23 1.846-1.036 3.346-2.418 4.5l-30.059 23.539 0.047 0.34c0.43 3.219 0.644 7.836 0.644 13.852 0 6.23-0.23 10.962-0.69 14.192l30.058 23.539 0.238 0.207c1.237 1.124 1.964 2.555 2.18 4.293a8.176 8.176 0 0 1-1.036 5.192l-29.022 49.846-0.166 0.28c-0.899 1.456-2.053 2.401-3.462 2.836-1.497 0.461-3.167 0.346-5.01-0.347l-35.587-14.192-0.766 0.553c-8.901 6.4-16.823 10.947-23.766 13.64l-5.182 37.73-0.098 0.365c-0.48 1.68-1.311 3.058-2.493 4.135-1.267 1.154-2.707 1.731-4.32 1.731h-58.045l-0.3-0.007c-1.491-0.067-2.83-0.642-4.019-1.724-1.266-1.154-2.015-2.654-2.245-4.5l-5.528-37.73-0.903-0.37c-9.274-3.85-17.035-8.457-23.283-13.823l-35.933 14.192-0.256 0.109c-3.563 1.463-6.357 0.503-8.382-2.878l-29.022-49.846-0.166-0.304c-0.797-1.528-1.087-3.157-0.87-4.888 0.23-1.846 1.036-3.346 2.418-4.5l30.404-23.539-0.046-0.336c-0.41-3.075-0.625-7.425-0.643-13.052L634.2 786c0-6.23 0.23-10.962 0.691-14.192l-30.404-23.539-0.238-0.207c-1.237-1.124-1.964-2.555-2.18-4.293a8.176 8.176 0 0 1 1.036-5.192l29.022-49.846 0.146-0.238c2.062-3.265 4.892-4.11 8.492-2.531l35.933 14.192 0.857-0.64c7.99-5.915 15.767-10.433 23.329-13.552l5.528-37.731 0.049-0.342c0.277-1.69 1.009-3.077 2.196-4.158 1.267-1.154 2.707-1.731 4.32-1.731h58.045zM513.5 94C639.697 94 742 196.303 742 322.5c0 124.935-100.267 226.452-224.721 228.47l-3.779 0.03c-175.917 0-320.857 132.626-340.286 303.344l-0.334 3.156H512c19.683 0 35.677 15.797 35.995 35.405l0.005 0.595c0 19.683-15.797 35.677-35.405 35.995l-0.595 0.005H135c-19.882 0-36-16.118-36-36 0-178.041 112.252-329.865 269.843-388.559l4.777-1.746-1.598-1.25C319.02 460.1 285 395.273 285 322.5 285 196.303 387.303 94 513.5 94z m228.828 641c-8.963 0-17.293 2.298-24.992 6.894-7.698 4.596-13.846 10.801-18.442 18.615-4.596 7.813-6.894 16.2-6.894 25.163 0 8.963 2.298 17.293 6.894 24.992 4.596 7.698 10.744 13.846 18.442 18.442 7.699 4.596 16.03 6.894 24.992 6.894s17.35-2.298 25.163-6.894c7.814-4.596 14.019-10.744 18.615-18.442 4.596-7.699 6.894-16.03 6.894-24.992s-2.298-17.35-6.894-25.163c-4.596-7.814-10.801-14.019-18.615-18.615-7.813-4.596-16.2-6.894-25.163-6.894zM513.5 166C427.067 166 357 236.067 357 322.5S427.067 479 513.5 479 670 408.933 670 322.5 599.933 166 513.5 166z" fill="#4A4A4A" p-id="19198"></path></svg>